<svg width="43" height="27" viewBox="0 0 43 27" fill="none" xmlns="http://www.w3.org/2000/svg">
<path fill-rule="evenodd" clip-rule="evenodd" d="M31.8079 3.49553L25.4833 9.81875L25.9271 13.3692L27.0923 10.929L30.6977 15.5333L35.7458 0L18.936 6.98964L23.4854 9.37494L31.8079 3.49553Z" fill="#8C3494"/>
<path d="M26.3143 14.5918H19.6572C14.5851 15.3681 14.0539 22.7466 19.6023 23.7498H26.3143V17.087C28.5531 17.1617 29.0152 19.9541 27.3696 20.9714C27.7021 21.3588 29.0336 22.803 29.0336 22.803C32.5277 19.7879 30.5312 14.8313 26.3143 14.5918ZM23.8755 21.2489H20.1588C17.8566 21.3898 17.1071 17.5857 19.9362 17.087H23.8811L23.8755 21.2489Z" fill="#8C3494"/>
<path fill-rule="evenodd" clip-rule="evenodd" d="M40.2401 17.9185H37.7984L36.7446 20.3601H39.8512C40.4754 20.3319 40.5036 21.2477 39.8512 21.3027H34.4706V17.0858H42.7353V14.5906H41.5152C41.1545 9.43114 34.9834 9.27757 33.3603 12.094C33.6788 12.3575 35.1919 13.703 35.1919 13.703C36.1218 12.2462 38.7016 12.3152 39.0763 14.5906H32.0317V23.7486H39.9654C41.7674 23.7218 42.6 22.3904 42.7945 21.2534C42.903 19.4161 41.7927 18.196 40.2401 17.9185Z" fill="#8C3494"/>
<path fill-rule="evenodd" clip-rule="evenodd" d="M16.4958 14.5918H13.2778C12.2521 15.8401 10.4769 20.8883 13.9991 24.6881C13.9991 24.6881 15.525 23.3849 15.8307 23.1383C14.7473 22.0802 12.9453 17.7816 16.4958 14.5918Z" fill="#8C3494"/>
<path fill-rule="evenodd" clip-rule="evenodd" d="M8.31151 24.774C8.31179 25.1731 8.1937 25.5633 7.97217 25.8953C7.75065 26.2272 7.43564 26.4861 7.06701 26.639C6.69837 26.7919 6.29266 26.832 5.90119 26.7544C5.50973 26.6767 5.1501 26.4846 4.8678 26.2025C4.5855 25.9204 4.3932 25.5609 4.31524 25.1695C4.23728 24.7781 4.27715 24.3724 4.42981 24.0036C4.58248 23.6349 4.84107 23.3197 5.17289 23.0979C5.50471 22.8762 5.89484 22.7578 6.29394 22.7578C6.82879 22.7578 7.34175 22.9702 7.72008 23.3482C8.09841 23.7263 8.31114 24.2391 8.31151 24.774V24.774Z" fill="#8C3494"/>
<path fill-rule="evenodd" clip-rule="evenodd" d="M4.01262 14.5918C-1.05949 15.3681 -1.58924 22.7466 3.95767 23.7498H3.9943C4.19304 23.3078 4.51525 22.9326 4.92218 22.6694C5.3291 22.4062 5.8034 22.2662 6.28802 22.2662C6.77264 22.2662 7.24695 22.4062 7.65387 22.6694C8.06079 22.9326 8.383 23.3078 8.58174 23.7498H10.6698V14.5918H4.01262ZM8.22951 21.2489H4.50715C2.20498 21.3898 1.45543 17.5857 4.28454 17.087H8.22951V21.2489Z" fill="#8C3494"/>
<path fill-rule="evenodd" clip-rule="evenodd" d="M6.39943 12.4272C7.2166 12.2863 7.61955 10.6097 6.28812 10.2363H4.12402V13.4261H5.01164V12.4272L6.01056 13.4261H7.39835L6.39943 12.4272ZM6.29376 11.3001C6.29376 11.3557 6.27164 11.4091 6.23227 11.4485C6.1929 11.4879 6.13951 11.51 6.08383 11.51H5.02291V11.0662H6.08383C6.13878 11.0662 6.19155 11.0877 6.2308 11.1262C6.27005 11.1646 6.29265 11.2169 6.29376 11.2719V11.3001Z" fill="#8C3494"/>
<path fill-rule="evenodd" clip-rule="evenodd" d="M8.94237 10.1856C8.62265 10.1867 8.31044 10.2825 8.04516 10.461C7.77989 10.6394 7.57346 10.8925 7.45194 11.1882C7.33043 11.484 7.29928 11.8091 7.36244 12.1225C7.4256 12.4359 7.58023 12.7236 7.80679 12.9492C8.03336 13.1748 8.3217 13.3281 8.63539 13.3899C8.94908 13.4517 9.27405 13.4192 9.56924 13.2964C9.86444 13.1736 10.1166 12.966 10.2939 12.7C10.4712 12.4339 10.5657 12.1213 10.5654 11.8016C10.5653 11.5888 10.5231 11.3782 10.4414 11.1817C10.3597 10.9853 10.24 10.8069 10.0892 10.6568C9.93845 10.5067 9.75954 10.3878 9.56274 10.3069C9.36595 10.2261 9.15513 10.1848 8.94237 10.1856V10.1856ZM8.94237 12.5117C8.80335 12.5103 8.66785 12.4678 8.55293 12.3895C8.43801 12.3113 8.34882 12.2008 8.29658 12.072C8.24434 11.9431 8.23139 11.8017 8.25936 11.6655C8.28733 11.5293 8.35498 11.4045 8.45377 11.3067C8.55257 11.2088 8.6781 11.1424 8.81455 11.1158C8.95101 11.0892 9.09229 11.1036 9.2206 11.1571C9.34891 11.2106 9.45852 11.3009 9.53562 11.4166C9.61272 11.5323 9.65387 11.6682 9.65387 11.8072C9.65388 11.9003 9.63542 11.9925 9.59958 12.0784C9.56374 12.1644 9.51122 12.2423 9.44506 12.3079C9.37889 12.3734 9.3004 12.4251 9.21412 12.4601C9.12783 12.4951 9.03547 12.5126 8.94237 12.5117V12.5117Z" fill="#8C3494"/>
<path fill-rule="evenodd" clip-rule="evenodd" d="M18.1129 11.1029H19.5655V10.166H18.3369C17.3704 10.166 16.5786 10.8958 16.5786 11.7863C16.5786 12.6767 17.3704 13.4079 18.3369 13.4079H19.5655V12.471H18.1129C18.0113 12.4708 17.9112 12.4473 17.8201 12.4024C17.729 12.3575 17.6494 12.2922 17.5874 12.2118H19.5599V11.3664H17.5874C17.6489 11.2852 17.7283 11.2191 17.8195 11.1735C17.9106 11.1278 18.011 11.1036 18.1129 11.1029V11.1029Z" fill="#8C3494"/>
<path fill-rule="evenodd" clip-rule="evenodd" d="M12.3378 12.471C12.1616 12.4703 11.9929 12.4 11.8684 12.2754C11.7438 12.1509 11.6735 11.9821 11.6728 11.806V11.768C11.6731 11.5917 11.7433 11.4228 11.8679 11.2981C11.9926 11.1735 12.1615 11.1033 12.3378 11.1029H13.7185V10.166H12.4801C11.5135 10.166 10.7231 10.8958 10.7231 11.7863C10.7231 12.6767 11.5135 13.4079 12.4801 13.4079H13.7185V12.471H12.3378Z" fill="#8C3494"/>
<path fill-rule="evenodd" clip-rule="evenodd" d="M22.9402 10.2266H19.8096V11.0663H20.955V13.3586H21.7933V11.0663H22.9402V10.2266Z" fill="#8C3494"/>
<path d="M15.4884 11.7806L17.0298 10.2266H15.7815L14.915 11.1015V10.2266H14.0767V13.3586H14.915V12.4611L15.8054 13.3586H17.0523L15.4884 11.7806Z" fill="#8C3494"/>
<path d="M28.0954 25.2947C27.9443 25.3313 27.8134 25.4253 27.7305 25.5568C27.635 25.6773 27.5816 25.8258 27.5783 25.9795C27.5786 26.0654 27.5968 26.1504 27.6319 26.2289C27.677 26.3317 27.7389 26.3824 27.815 26.3824C27.8707 26.3761 27.9235 26.3542 27.9672 26.319L28.0545 26.5515C27.9861 26.5963 27.9066 26.6212 27.8249 26.6234C27.7175 26.6209 27.6143 26.5811 27.5332 26.5106C27.4626 26.4412 27.4099 26.3556 27.3797 26.2613C27.3514 26.174 27.339 26.0824 27.343 25.9908V25.9048C27.343 25.717 27.444 25.5033 27.646 25.2638C27.7136 25.1905 27.7856 25.1213 27.8615 25.0566H28.1771V25.2863L28.0954 25.2947Z" fill="#8C3494"/>
<path d="M29.4972 25.2877V26.605H29.2337V26.4346C29.2177 26.3458 29.1702 26.2657 29.0999 26.2091C29.036 26.1418 28.9651 26.0814 28.8886 26.0288C28.8102 25.9736 28.7167 25.9441 28.6209 25.9443C28.5765 25.9419 28.5324 25.9527 28.494 25.9753C28.4557 25.9978 28.4249 26.0311 28.4053 26.0711C28.3992 26.0818 28.3963 26.094 28.3969 26.1063C28.398 26.1251 28.4032 26.1434 28.4122 26.16C28.4212 26.1766 28.4338 26.1909 28.449 26.2021C28.4776 26.2281 28.5146 26.2431 28.5532 26.2444C28.6228 26.2324 28.6905 26.2115 28.7547 26.1824L28.8322 26.4219C28.7423 26.4743 28.6415 26.5051 28.5377 26.5121C28.4519 26.5127 28.3678 26.4871 28.2968 26.4388C28.2259 26.3909 28.1706 26.3233 28.1376 26.2444C28.1218 26.2035 28.1142 26.1599 28.1151 26.1161C28.1123 26.0478 28.1281 25.98 28.1609 25.9199C28.1936 25.8599 28.2421 25.8098 28.301 25.7752C28.3841 25.7189 28.4825 25.6894 28.5828 25.6907H28.5997C28.5923 25.6321 28.5667 25.5774 28.5265 25.5343C28.5108 25.5105 28.49 25.4906 28.4656 25.476C28.4412 25.4614 28.4139 25.4524 28.3856 25.4497H28.0939V25.2877H27.9756V25.0566H29.6663V25.2877H29.4972ZM29.2337 25.2877H28.6138C28.6947 25.332 28.7629 25.396 28.8122 25.4739C28.8615 25.5518 28.8902 25.6409 28.8956 25.7329C29.0288 25.7928 29.1468 25.8819 29.2408 25.9936L29.2337 25.2877Z" fill="#8C3494"/>
<path d="M30.0087 25.2877V26.605H29.7452V25.2877H29.5508V25.0566H30.1848V25.2877H30.0087Z" fill="#8C3494"/>
<path d="M31.2766 25.2877H30.0903V25.0566H31.7331V25.2877H31.5584V26.605H31.326C31.3034 26.5374 31.1851 26.4332 30.9836 26.2909C30.8756 26.2198 30.7592 26.1625 30.637 26.1204C30.5173 26.0707 30.3902 26.0412 30.2608 26.033L30.1904 25.771C30.3518 25.6702 30.5226 25.5852 30.7004 25.5174C30.8131 25.4652 31.0089 25.3891 31.2766 25.2877ZM31.2921 25.5695C31.2428 25.5864 31.1907 25.6047 31.1343 25.6273L30.6835 25.8245L30.6328 25.8456C30.8475 25.9219 31.0491 26.0313 31.2301 26.1697C31.2541 26.188 31.2752 26.2021 31.2921 26.2162V25.5695Z" fill="#8C3494"/>
<path d="M32.0682 25.2877V26.605H31.8048V25.2877H31.6104V25.0566H32.243V25.2877H32.0682Z" fill="#8C3494"/>
<path d="M32.1514 25.2884V25.0574H32.9291C32.9301 25.0508 32.9301 25.0442 32.9291 25.0376C32.9331 24.9842 32.9182 24.9312 32.8871 24.8876C32.8559 24.8441 32.8104 24.8129 32.7586 24.7995C32.7418 24.7971 32.7247 24.7971 32.7079 24.7995C32.6731 24.8007 32.6386 24.8059 32.605 24.815L32.5036 24.8404C32.4622 24.8465 32.4224 24.8609 32.3867 24.8826C32.3399 24.9139 32.2904 24.9408 32.2387 24.963L32.1542 24.7671C32.2772 24.6884 32.4111 24.6282 32.5515 24.5882C32.6151 24.5691 32.681 24.5592 32.7473 24.5586C32.8259 24.5627 32.9021 24.5869 32.9685 24.629C33.0401 24.6755 33.098 24.7402 33.1364 24.8165C33.1748 24.8927 33.1922 24.9778 33.1869 25.063H33.3391V25.294L32.1514 25.2884ZM33.0672 26.827C32.9586 26.73 32.8443 26.6396 32.7248 26.5564C32.6363 26.5015 32.5417 26.4571 32.443 26.424C32.3827 26.3984 32.3199 26.3791 32.2556 26.3662V26.0577H32.3571H32.4599C32.5588 26.061 32.6573 26.0452 32.7502 26.0112C32.891 25.952 32.9629 25.8816 32.9629 25.8013C32.9629 25.7717 32.9556 25.7425 32.9416 25.7165C32.9275 25.6904 32.9073 25.6682 32.8826 25.6519C32.83 25.6209 32.7765 25.5913 32.722 25.5632C32.7085 25.5561 32.6935 25.5523 32.6783 25.5519C32.6421 25.5529 32.6066 25.5615 32.574 25.5772C32.5275 25.5984 32.5064 25.6223 32.5092 25.6491C32.5191 25.7181 32.5909 25.7463 32.7248 25.7364L32.5839 25.9548C32.5208 25.9562 32.459 25.9369 32.4078 25.8999C32.3599 25.8731 32.3198 25.8343 32.2914 25.7874C32.263 25.7405 32.2473 25.687 32.2458 25.6322C32.2462 25.5795 32.2621 25.5281 32.2914 25.4843C32.3207 25.4405 32.3621 25.4062 32.4106 25.3856C32.5054 25.335 32.6117 25.3098 32.7192 25.3124C32.7636 25.3109 32.8078 25.3191 32.8488 25.3363C32.8854 25.3532 32.922 25.3715 32.9587 25.3913C33.0399 25.4254 33.1089 25.4831 33.1569 25.557C33.2049 25.6309 33.2296 25.7174 33.2278 25.8055C33.229 25.8687 33.2147 25.9312 33.1859 25.9875C33.1571 26.0438 33.1149 26.0921 33.0629 26.1281C32.9552 26.2024 32.8318 26.2506 32.7023 26.269C32.7487 26.2916 32.815 26.3282 32.9037 26.3803C33.03 26.4744 33.1505 26.576 33.2644 26.6847L33.0672 26.827Z" fill="#8C3494"/>
<path d="M34.9172 25.288V26.6054H34.658V26.0827C34.6549 26.0306 34.6346 25.981 34.6002 25.9418C34.5859 25.9209 34.5671 25.9036 34.5451 25.8912C34.5231 25.8787 34.4986 25.8715 34.4734 25.8699C34.4493 25.8725 34.4261 25.8807 34.4058 25.8939C34.3855 25.9071 34.3686 25.925 34.3565 25.946C34.3196 25.9962 34.2998 26.057 34.3001 26.1193H34.0183C34.02 26.052 34.0002 25.9859 33.962 25.9305C33.9486 25.9076 33.9298 25.8884 33.9072 25.8746C33.8845 25.8608 33.8588 25.8529 33.8324 25.8516C33.7891 25.8523 33.7473 25.8677 33.714 25.8953C33.6974 25.9071 33.6833 25.9223 33.6727 25.9397C33.662 25.9571 33.655 25.9765 33.652 25.9967L33.6436 26.0657V26.0925C33.6436 26.2278 33.7267 26.2954 33.8929 26.2954C33.9379 26.2931 33.9827 26.2875 34.0268 26.2785L33.9338 26.5448C33.8803 26.5518 33.8479 26.5546 33.8366 26.5546C33.709 26.5515 33.587 26.5014 33.4942 26.4137C33.4478 26.3701 33.4134 26.3153 33.3942 26.2545C33.3711 26.1952 33.3587 26.1322 33.3576 26.0686C33.3539 26.0049 33.3637 25.9411 33.3863 25.8815C33.4089 25.8218 33.4438 25.7676 33.4887 25.7223C33.5336 25.677 33.5875 25.6417 33.647 25.6185C33.7064 25.5954 33.7701 25.5851 33.8338 25.5881C33.9009 25.5891 33.9668 25.6071 34.0251 25.6403C34.0835 25.6736 34.1326 25.7211 34.1677 25.7783C34.2013 25.7241 34.2473 25.6786 34.3019 25.6455C34.3565 25.6124 34.4182 25.5928 34.4819 25.5881C34.5158 25.5897 34.5491 25.5979 34.5798 25.6124C34.6105 25.6269 34.6381 25.6474 34.6608 25.6727V25.2838H33.2378V25.0527H35.0694V25.2838L34.9172 25.288Z" fill="#8C3494"/>
<path d="M36.8938 25.2877H35.7061V25.0566H37.3503V25.2877H37.1671V26.605H36.9346C36.9121 26.5374 36.7937 26.4332 36.5923 26.2909C36.4843 26.2198 36.3679 26.1625 36.2457 26.1204C36.1259 26.0707 35.9988 26.0412 35.8695 26.033L35.799 25.771C35.9605 25.6702 36.1313 25.5852 36.3091 25.5174C36.426 25.4652 36.6219 25.3891 36.8938 25.2877ZM36.9093 25.5695C36.86 25.5864 36.8078 25.6047 36.7515 25.6273L36.3006 25.8245L36.2499 25.8456C36.4647 25.9219 36.6662 26.0313 36.8473 26.1697L36.9093 26.2162V25.5695Z" fill="#8C3494"/>
<path d="M37.7914 25.2888C37.7233 25.3685 37.6801 25.4665 37.6675 25.5706C37.6978 25.7148 37.7402 25.8562 37.7943 25.9933C37.8341 26.0906 37.8569 26.194 37.8619 26.299C37.862 26.3737 37.8364 26.4463 37.7895 26.5045C37.7426 26.5627 37.6771 26.603 37.6041 26.6188C37.5125 26.647 37.4179 26.664 37.3223 26.6695L37.3589 26.4413C37.5139 26.4075 37.5914 26.3525 37.5914 26.2764C37.5795 26.1615 37.5466 26.0497 37.4942 25.9468C37.442 25.8447 37.4091 25.7339 37.3969 25.6199C37.4066 25.5028 37.4453 25.3899 37.5097 25.2916H37.2363V25.0605H37.9704V25.2916L37.7914 25.2888Z" fill="#8C3494"/>
<path d="M38.3549 25.2877V26.605H38.0915V25.2877H37.8984V25.0566H38.531V25.2877H38.3549Z" fill="#8C3494"/>
<path d="M38.9636 25.9126C38.9087 25.915 38.8538 25.9058 38.8026 25.8857C38.7514 25.8656 38.705 25.8349 38.6664 25.7957C38.6288 25.7555 38.5996 25.7083 38.5805 25.6568C38.5614 25.6053 38.5528 25.5505 38.555 25.4956C38.5539 25.4433 38.5635 25.3914 38.5831 25.3429C38.6027 25.2945 38.632 25.2505 38.6692 25.2138C38.7061 25.1769 38.7501 25.1478 38.7985 25.1282C38.8469 25.1086 38.8987 25.0989 38.951 25.0997C39.0243 25.0983 39.0963 25.12 39.1567 25.1617C39.2171 25.2034 39.2629 25.263 39.2877 25.3321C39.3159 25.3931 39.3308 25.4594 39.3314 25.5266C39.3366 25.6293 39.3023 25.7301 39.2356 25.8084C39.2 25.8437 39.1574 25.8712 39.1106 25.8891C39.0638 25.9071 39.0137 25.9151 38.9636 25.9126V25.9126ZM39.2525 26.758C39.0426 26.5676 38.8147 26.3982 38.572 26.2522V25.8873C38.9076 26.1062 39.211 26.3708 39.4737 26.6734V26.9454L39.2525 26.758ZM39.0256 25.3758C39.0145 25.3672 39.0018 25.3609 38.9883 25.3573C38.9748 25.3537 38.9606 25.3528 38.9467 25.3547C38.8467 25.3702 38.7974 25.4195 38.7974 25.4956C38.7985 25.539 38.8161 25.5803 38.8467 25.6111C38.8604 25.6275 38.8773 25.6407 38.8965 25.6499C38.9157 25.6592 38.9367 25.6642 38.958 25.6646H38.9946C39.0269 25.6581 39.0559 25.6404 39.0765 25.6146C39.0971 25.5889 39.108 25.5567 39.1073 25.5238C39.107 25.4943 39.0993 25.4653 39.085 25.4395C39.0708 25.4137 39.0504 25.3918 39.0256 25.3758V25.3758Z" fill="#8C3494"/>
<path d="M41.1389 24.9028C40.9177 24.7412 40.6576 24.6415 40.3851 24.614C40.2889 24.6063 40.1924 24.6221 40.1037 24.6602C40.0151 24.6983 39.9371 24.7573 39.8765 24.8324C39.8346 24.8999 39.8136 24.9783 39.8159 25.0578H40.0005V25.2888H39.8159V26.6062H39.5468V25.2888H39.3721V25.0578H39.5468C39.5461 24.9735 39.5621 24.89 39.5938 24.8119C39.6254 24.7338 39.6722 24.6627 39.7313 24.6027C39.8626 24.4796 40.0312 24.4038 40.2104 24.3871L40.3287 24.373H40.3851C40.5503 24.3743 40.7134 24.4098 40.8641 24.4773C40.9486 24.5168 41.091 24.5971 41.2868 24.7168L41.1389 24.9028Z" fill="#8C3494"/>
<path d="M40.9148 25.288V25.2965C41.0359 25.3043 41.1535 25.34 41.2586 25.4007C41.3316 25.4328 41.394 25.4849 41.4386 25.551C41.4832 25.6171 41.5082 25.6944 41.5108 25.7741C41.5125 25.8607 41.4825 25.9449 41.4263 26.0108C41.3698 26.0782 41.2924 26.1248 41.2065 26.1432C41.1306 26.1636 41.0513 26.167 40.974 26.1531V25.9037C41.0021 25.9057 41.0304 25.9057 41.0585 25.9037C41.1896 25.9037 41.2558 25.8558 41.2558 25.7628C41.2558 25.6698 41.1417 25.5783 40.9148 25.5487V26.6011H40.6809C40.6519 26.5399 40.6144 26.483 40.5696 26.4321C40.557 26.4166 40.5231 26.3729 40.4682 26.2996C40.4409 26.2664 40.4102 26.2362 40.3766 26.2095C40.3416 26.1838 40.3104 26.1534 40.2836 26.1193C40.2661 26.1027 40.2448 26.0906 40.2216 26.0841C40.1316 26.0489 40.0364 26.0284 39.9398 26.0235L39.8708 25.7614C39.9286 25.7192 40.0596 25.6417 40.2625 25.5261L40.4485 25.4176L40.6457 25.3021V25.2838H39.8145V25.0527H41.6235V25.2838L40.9148 25.288ZM40.6499 25.5923C40.6077 25.6248 40.5415 25.6684 40.4541 25.7234C40.425 25.7371 40.3987 25.7562 40.3766 25.7797C40.3484 25.8079 40.3203 25.8333 40.2949 25.8572C40.3231 25.8826 40.3667 25.9178 40.4287 25.9643L40.6499 26.208V25.5923Z" fill="#8C3494"/>
<path d="M42.0213 25.9126C41.9663 25.915 41.9114 25.9059 41.8602 25.8857C41.809 25.8656 41.7626 25.8349 41.724 25.7957C41.6864 25.7555 41.6573 25.7083 41.6382 25.6568C41.619 25.6053 41.6104 25.5505 41.6127 25.4956C41.6115 25.4433 41.6211 25.3914 41.6407 25.3429C41.6603 25.2945 41.6896 25.2506 41.7268 25.2138C41.7637 25.1768 41.8076 25.1477 41.8561 25.1281C41.9045 25.1085 41.9563 25.0988 42.0086 25.0997C42.0818 25.0982 42.1537 25.1199 42.2139 25.1616C42.2741 25.2034 42.3196 25.263 42.3439 25.3322C42.3732 25.3928 42.3886 25.4592 42.389 25.5266C42.3942 25.6293 42.3599 25.7301 42.2932 25.8084C42.2576 25.8437 42.215 25.8712 42.1682 25.8892C42.1214 25.9071 42.0713 25.9151 42.0213 25.9126V25.9126ZM42.303 26.758C42.0935 26.5673 41.8655 26.3978 41.6225 26.2522V25.8873C42.0804 26.217 42.3819 26.479 42.5228 26.6734V26.9454L42.303 26.758ZM42.0706 25.373C42.0481 25.3558 42.0197 25.3482 41.9917 25.3519C41.8916 25.3674 41.8423 25.4167 41.8423 25.4928C41.8434 25.5362 41.8611 25.5775 41.8916 25.6083C41.9053 25.6246 41.9223 25.6379 41.9415 25.6471C41.9607 25.6563 41.9816 25.6614 42.0029 25.6618H42.0396C42.0719 25.6553 42.1008 25.6375 42.1214 25.6118C42.142 25.5861 42.1529 25.5539 42.1523 25.5209C42.1518 25.4925 42.1447 25.4645 42.1315 25.4393C42.1183 25.4141 42.0994 25.3924 42.0762 25.3758L42.0706 25.373Z" fill="#8C3494"/>
<path d="M12.8916 26.7188L13.3833 26.885L13.5792 26.7188L13.0889 26.5469L12.8916 26.7188Z" fill="#8C3494"/>
<path d="M13.055 25.3598V25.0625H9.2002V25.3598H9.8483V26.0234H10.4119C10.4119 26.0234 10.5697 25.9727 10.6077 25.8924V26.1544C10.61 26.2092 10.5908 26.2627 10.5543 26.3035C10.5177 26.3443 10.4666 26.3692 10.4119 26.3728H9.58624C9.53693 26.3728 9.48761 26.3517 9.48761 26.1544V25.5359H9.20583V26.3291C9.20583 26.3953 9.24669 26.6264 9.4538 26.6264H10.5626C10.644 26.6157 10.7191 26.5769 10.7749 26.5167C10.8308 26.4565 10.8638 26.3787 10.8684 26.2967V25.5359H10.6007C10.5739 25.6528 10.5894 25.7317 10.4696 25.7613H10.1428V25.3598H11.0924V26.6278H11.4192V25.3598H11.6475V26.6278H12.7281C12.8164 26.6252 12.9002 26.588 12.9614 26.5243C13.0225 26.4605 13.0561 26.3752 13.055 26.2869V25.5373H12.7929C12.7929 25.6106 12.7831 25.7191 12.6633 25.7191H11.942V25.3598H13.055ZM12.6323 25.9797C12.6816 25.9938 12.7479 25.9149 12.7958 25.8487V26.1544C12.7958 26.2714 12.7042 26.3728 12.6323 26.3728H11.942V25.9797H12.6323Z" fill="#8C3494"/>
<path d="M14.0707 25.7148H13.4155V26.0643H14.0707V25.7148Z" fill="#8C3494"/>
<path d="M14.4316 25.0586V25.3601H15.5095V25.5362H14.4316V26.2407C14.4542 26.4703 14.5725 26.6253 14.7965 26.6253H15.7786V25.3573H16.0082V26.6253H16.3027V25.0614L14.4316 25.0586ZM15.5095 26.4126H14.8557C14.7571 26.3985 14.6923 26.2815 14.6923 26.1505V25.8011H15.5095V26.4126Z" fill="#8C3494"/>
<path d="M17.709 25.3603H19.0446V25.5364H18.6516C18.6516 25.5712 18.6377 25.6045 18.6132 25.6291C18.5886 25.6537 18.5553 25.6675 18.5205 25.6675C18.4858 25.6675 18.4524 25.6537 18.4279 25.6291C18.4033 25.6045 18.3895 25.5712 18.3895 25.5364H17.709V26.286C17.709 26.3593 17.7203 26.5974 17.9203 26.6269H18.4557V26.3733H18.095C18.0556 26.3652 18.0206 26.343 17.9964 26.3108C17.9723 26.2786 17.9608 26.2387 17.964 26.1986V25.8055H18.3247V26.0239H18.6516V25.8492C18.6304 25.7689 18.9953 25.776 19.0122 25.8492V26.6284H19.3011V25.3603H19.4969V26.6284H19.7914V25.0645H17.709V25.3603Z" fill="#8C3494"/>
<path d="M17.2439 25.1465H16.5493V25.5565C16.5574 25.6399 16.5961 25.7175 16.6581 25.7739C16.72 25.8304 16.8008 25.8619 16.8846 25.8622H17.4482V25.3606C17.4424 25.3075 17.4192 25.2577 17.3823 25.219C17.3454 25.1803 17.2967 25.1548 17.2439 25.1465V25.1465ZM17.0326 25.5847C16.9072 25.5847 16.8057 25.5382 16.8057 25.4818C16.8057 25.4255 16.9072 25.379 17.0326 25.379C17.158 25.379 17.2594 25.4255 17.2594 25.4818C17.2594 25.5382 17.158 25.5847 17.0326 25.5847Z" fill="#8C3494"/>
<path d="M16.5957 26.0176V26.2754L17.4354 26.6234V26.3501L16.5957 26.0176Z" fill="#8C3494"/>
<path d="M24.2956 25.1465H23.5996V25.5565C23.6079 25.6398 23.6468 25.7172 23.7087 25.7736C23.7706 25.83 23.8512 25.8616 23.9349 25.8622H24.4985V25.3606C24.493 25.3076 24.4701 25.2579 24.4334 25.2191C24.3967 25.1804 24.3483 25.1549 24.2956 25.1465V25.1465ZM24.0843 25.5847C23.9575 25.5847 23.856 25.5382 23.856 25.4818C23.856 25.4255 23.9575 25.379 24.0843 25.379C24.2111 25.379 24.3111 25.4255 24.3111 25.4818C24.3111 25.5382 24.2097 25.5847 24.0913 25.5847H24.0843Z" fill="#8C3494"/>
<path d="M23.646 26.0176V26.2754L24.4871 26.6234V26.3501L23.646 26.0176Z" fill="#8C3494"/>
<path d="M26.0806 25.5317V25.3598H26.6273V25.0625H24.7407V25.3598H25.8185V25.5359H24.7407V26.2404C24.7647 26.47 24.8816 26.625 25.1056 26.625H26.0806V25.8473H26.3455C26.3892 25.8473 26.4004 25.8261 26.4103 25.8909V26.022C26.3948 26.0882 26.3892 26.1319 26.3455 26.153H26.2483V26.4151H26.4441C26.4899 26.4073 26.5326 26.3868 26.5672 26.3559C26.6018 26.325 26.6271 26.285 26.6399 26.2404V25.5359L26.0806 25.5317ZM25.8185 26.4122H25.1648C25.0662 26.3982 25.0014 26.2812 25.0014 26.1502V25.8008H25.8143V25.8445L25.8185 26.4122Z" fill="#8C3494"/>
<path d="M20.6787 25.0586V25.3601H21.7565V25.5362H20.6787V26.2407C20.7013 26.4703 20.8196 26.6253 21.0436 26.6253H22.0186V25.3573H22.3596L22.2356 25.6053V25.7828H22.4638C22.5864 25.7969 22.6272 25.8772 22.6272 26.0885C22.6272 26.2294 22.5948 26.3393 22.4864 26.3506H22.2722V26.6126H22.5019C22.5667 26.6126 22.8668 26.6422 22.8935 26.3506C22.9259 25.7616 22.9541 25.6081 22.5343 25.5644L22.5948 25.3601H23.057V26.6281H23.3514V25.0642L20.6787 25.0586ZM21.7565 26.4126H21.1014C21.0042 26.3985 20.938 26.2815 20.938 26.1505V25.8011H21.7565V26.4126Z" fill="#8C3494"/>
</svg>
